<svg width="15" height="15" viewBox="0 0 15 15" fill="none" xmlns="http://www.w3.org/2000/svg">
<path fill-rule="evenodd" clip-rule="evenodd" d="M3.90625 8.125C6.44937 8.125 6.5625 8.9875 6.5625 10.7812C6.5625 11.68 6.5625 12.3194 6.185 12.7875C5.75063 13.3269 4.96 13.4375 3.90625 13.4375C2.8525 13.4375 2.06187 13.3269 1.6275 12.7875C1.25 12.3194 1.25 11.6806 1.25 10.7969L1.71875 10.7812H1.25C1.25 8.9875 1.36313 8.125 3.90625 8.125ZM10.7812 8.125C13.3244 8.125 13.4375 8.9875 13.4375 10.7812C13.4375 11.68 13.4375 12.3194 13.06 12.7875C12.6256 13.3269 11.835 13.4375 10.7812 13.4375C9.7275 13.4375 8.93687 13.3269 8.5025 12.7875C8.125 12.3194 8.125 11.6806 8.125 10.7969L8.59375 10.7812H8.125C8.125 8.9875 8.23813 8.125 10.7812 8.125ZM4.0351 9.06278L3.90625 9.0625C2.27564 9.0625 2.19202 9.17951 2.18773 10.5482L2.18799 11.0814C2.19096 11.6257 2.2117 12.0189 2.35688 12.2C2.5225 12.405 3.01437 12.5 3.90625 12.5C4.79813 12.5 5.29 12.4044 5.45563 12.1994C5.625 11.9887 5.625 11.4888 5.625 10.7963C5.625 9.23362 5.625 9.07014 4.0351 9.06278ZM10.9101 9.06278L10.7812 9.0625C9.15064 9.0625 9.06702 9.17951 9.06273 10.5482L9.06299 11.0814C9.06596 11.6257 9.0867 12.0189 9.23187 12.2C9.3975 12.405 9.88937 12.5 10.7812 12.5C11.6731 12.5 12.165 12.4044 12.3306 12.1994C12.5 11.9887 12.5 11.4888 12.5 10.7963C12.5 9.23362 12.5 9.07014 10.9101 9.06278ZM3.90625 1.25C6.44937 1.25 6.5625 2.1125 6.5625 3.90625C6.5625 4.805 6.5625 5.44438 6.185 5.9125C5.75063 6.45188 4.96 6.5625 3.90625 6.5625C2.8525 6.5625 2.06187 6.45188 1.6275 5.9125C1.25 5.44438 1.25 4.80562 1.25 3.92188L1.71875 3.90625H1.25C1.25 2.1125 1.36313 1.25 3.90625 1.25ZM10.7812 1.25C13.3244 1.25 13.4375 2.1125 13.4375 3.90625C13.4375 4.805 13.4375 5.44438 13.06 5.9125C12.6256 6.45188 11.835 6.5625 10.7812 6.5625C9.7275 6.5625 8.93687 6.45188 8.5025 5.9125C8.125 5.44438 8.125 4.80562 8.125 3.92188L8.59375 3.90625H8.125C8.125 2.1125 8.23813 1.25 10.7812 1.25ZM4.0351 2.18778L3.90625 2.1875C2.27564 2.1875 2.19202 2.30451 2.18773 3.67316L2.18799 4.20636C2.19096 4.75071 2.2117 5.14393 2.35688 5.325C2.5225 5.53 3.01437 5.625 3.90625 5.625C4.79813 5.625 5.29 5.52938 5.45563 5.32438C5.625 5.11375 5.625 4.61375 5.625 3.92125C5.625 2.35862 5.625 2.19514 4.0351 2.18778ZM10.9101 2.18778L10.7812 2.1875C9.15064 2.1875 9.06702 2.30451 9.06273 3.67316L9.06299 4.20636C9.06596 4.75071 9.0867 5.14393 9.23187 5.325C9.3975 5.53 9.88937 5.625 10.7812 5.625C11.6731 5.625 12.165 5.52938 12.3306 5.32438C12.5 5.11375 12.5 4.61375 12.5 3.92125C12.5 2.35862 12.5 2.19514 10.9101 2.18778Z" fill="#708895"/>
</svg>
